{
  "accessors": [
    {
      "bufferView": 2,
      "componentType": 5126,
      "count": 65532,
      "max": [
        34.00210189819336,
        32.64837646484375,
        130.0081787109375
      ],
      "min": [
        -33.997901916503906,
        -35.35162353515625,
        0.0
      ],
      "type": "VEC3"
    },
    {
      "bufferView": 2,
      "byteOffset": 786384,
      "componentType": 5126,
      "count": 65532,
      "max": [
        1.0,
        1.0,
        1.0
      ],
      "min": [
        -1.0,
        -1.0,
        -1.0
      ],
      "type": "VEC3"
    },
    {
      "bufferView": 3,
      "componentType": 5126,
      "count": 65532,
      "max": [
        1.0,
        1.0,
        1.0,
        1.0
      ],
      "min": [
        -1.0,
        -1.0,
        -1.0,
        -1.0
      ],
      "type": "VEC4"
    },
    {
      "bufferView": 1,
      "componentType": 5126,
      "count": 65532,
      "max": [
        0.9835000038146973,
        0.9972000122070313
      ],
      "min": [
        0.0047934879548847675,
        0.002300000051036477
      ],
      "type": "VEC2"
    },
    {
      "bufferView": 1,
      "byteOffset": 524256,
      "componentType": 5126,
      "count": 65532,
      "max": [
        0.9835000038146973,
        0.9972000122070313
      ],
      "min": [
        0.0047934879548847675,
        0.002300000051036477
      ],
      "type": "VEC2"
    },
    {
      "bufferView": 1,
      "byteOffset": 1048512,
      "componentType": 5126,
      "count": 65532,
      "max": [
        0.9835000038146973,
        0.9972000122070313
      ],
      "min": [
        0.0047934879548847675,
        0.002300000051036477
      ],
      "type": "VEC2"
    },
    {
      "bufferView": 0,
      "componentType": 5125,
      "count": 317625,
      "type": "SCALAR"
    },
    {
      "bufferView": 2,
      "byteOffset": 1572768,
      "componentType": 5126,
      "count": 9694,
      "max": [
        33.5468635559082,
        26.662609100341797,
        130.07638549804688
      ],
      "min": [
        -32.80189514160156,
        -22.694503784179688,
        18.834800720214844
      ],
      "type": "VEC3"
    },
    {
      "bufferView": 2,
      "byteOffset": 1689096,
      "componentType": 5126,
      "count": 9694,
      "max": [
        1.0,
        1.0,
        1.0
      ],
      "min": [
        -1.0,
        -0.9999997615814209,
        -1.0
      ],
      "type": "VEC3"
    },
    {
      "bufferView": 3,
      "byteOffset": 1048512,
      "componentType": 5126,
      "count": 9694,
      "max": [
        1.0,
        1.0,
        1.0,
        1.0
      ],
      "min": [
        -1.0,
        -1.0,
        -1.0,
        -1.0
      ],
      "type": "VEC4"
    },
    {
      "bufferView": 1,
      "byteOffset": 1572768,
      "componentType": 5126,
      "count": 9694,
      "max": [
        0.9959999918937683,
        0.9969000220298767
      ],
      "min": [
        0.06252507865428925,
        0.23010000586509705
      ],
      "type": "VEC2"
    },
    {
      "bufferView": 1,
      "byteOffset": 1650320,
      "componentType": 5126,
      "count": 9694,
      "max": [
        0.9959999918937683,
        0.9969000220298767
      ],
      "min": [
        0.06252507865428925,
        0.23010000586509705
      ],
      "type": "VEC2"
    },
    {
      "bufferView": 1,
      "byteOffset": 1727872,
      "componentType": 5126,
      "count": 9694,
      "max": [
        0.9959999918937683,
        0.9969000220298767
      ],
      "min": [
        0.06252507865428925,
        0.23010000586509705
      ],
      "type": "VEC2"
    },
    {
      "bufferView": 0,
      "byteOffset": 1270500,
      "componentType": 5125,
      "count": 39741,
      "type": "SCALAR"
    }
  ],
  "asset": {
    "extras": {
      "author": "MUSKONGE (https://sketchfab.com/MOUSIOON)",
      "license": "CC-BY-4.0 (http://creativecommons.org/licenses/by/4.0/)",
      "source": "https://sketchfab.com/3d-models/muskonge-n24t6n23s2001-d6d369b2d38e4275a1b4c3b16bda067b",
      "title": "MUSKONGE_N24T6N23S2001"
    },
    "generator": "Sketchfab-15.29.0",
    "version": "2.0"
  },
  "bufferViews": [
    {
      "buffer": 0,
      "byteLength": 1429464,
      "name": "floatBufferViews",
      "target": 34963
    },
    {
      "buffer": 0,
      "byteLength": 1805424,
      "byteOffset": 1429464,
      "byteStride": 8,
      "name": "floatBufferViews",
      "target": 34962
    },
    {
      "buffer": 0,
      "byteLength": 1805424,
      "byteOffset": 3234888,
      "byteStride": 12,
      "name": "floatBufferViews",
      "target": 34962
    },
    {
      "buffer": 0,
      "byteLength": 1203616,
      "byteOffset": 5040312,
      "byteStride": 16,
      "name": "floatBufferViews",
      "target": 34962
    }
  ],
  "buffers": [
    {
      "byteLength": 6243928,
      "uri": "scene.bin"
    }
  ],
  "images": [
    {
      "uri": "textures/ASSET_MAT_MR_baseColor.png"
    },
    {
      "uri": "textures/ASSET_MAT_MR_metallicRoughness.png"
    },
    {
      "uri": "textures/ASSET_MAT_MR_normal.png"
    }
  ],
  "materials": [
    {
      "doubleSided": true,
      "name": "ASSET_MAT_MR",
      "normalTexture": {
        "index": 2
      },
      "occlusionTexture": {
        "index": 1
      },
      "pbrMetallicRoughness": {
        "baseColorTexture": {
          "index": 0
        },
        "metallicRoughnessTexture": {
          "index": 1
        }
      }
    }
  ],
  "meshes": [
    {
      "name": "ASSET_ASSET_MAT_MR_0",
      "primitives": [
        {
          "attributes": {
            "NORMAL": 1,
            "POSITION": 0,
            "TANGENT": 2,
            "TEXCOORD_0": 3,
            "TEXCOORD_1": 4,
            "TEXCOORD_2": 5
          },
          "indices": 6,
          "material": 0,
          "mode": 4
        }
      ]
    },
    {
      "name": "ASSET_ASSET_MAT_MR_0",
      "primitives": [
        {
          "attributes": {
            "NORMAL": 8,
            "POSITION": 7,
            "TANGENT": 9,
            "TEXCOORD_0": 10,
            "TEXCOORD_1": 11,
            "TEXCOORD_2": 12
          },
          "indices": 13,
          "material": 0,
          "mode": 4
        }
      ]
    }
  ],
  "nodes": [
    {
      "children": [
        1
      ],
      "matrix": [
        1.0,
        0.0,
        0.0,
        0.0,
        0.0,
        2.220446049250313e-16,
        -1.0,
        0.0,
        0.0,
        1.0,
        2.220446049250313e-16,
        0.0,
        0.0,
        0.0,
        0.0,
        1.0
      ],
      "name": "Sketchfab_model"
    },
    {
      "children": [
        2
      ],
      "matrix": [
        0.009999999776482582,
        0.0,
        0.0,
        0.0,
        0.0,
        0.0,
        0.009999999776482582,
        0.0,
        0.0,
        -0.009999999776482582,
        0.0,
        0.0,
        0.0,
        0.0,
        0.0,
        1.0
      ],
      "name": "ASSET.FBX"
    },
    {
      "children": [
        3
      ],
      "name": "RootNode"
    },
    {
      "children": [
        4,
        5
      ],
      "matrix": [
        1.0,
        0.0,
        0.0,
        0.0,
        0.0,
        2.220446049250313e-16,
        -1.0,
        0.0,
        0.0,
        1.0,
        2.220446049250313e-16,
        0.0,
        0.0,
        0.0,
        0.0,
        1.0
      ],
      "name": "ASSET"
    },
    {
      "mesh": 0,
      "name": "ASSET_ASSET_MAT_MR_0"
    },
    {
      "mesh": 1,
      "name": "ASSET_ASSET_MAT_MR_0"
    }
  ],
  "samplers": [
    {
      "magFilter": 9729,
      "minFilter": 9987,
      "wrapS": 10497,
      "wrapT": 10497
    }
  ],
  "scene": 0,
  "scenes": [
    {
      "name": "Sketchfab_Scene",
      "nodes": [
        0
      ]
    }
  ],
  "textures": [
    {
      "sampler": 0,
      "source": 0
    },
    {
      "sampler": 0,
      "source": 1
    },
    {
      "sampler": 0,
      "source": 2
    }
  ]
}
